<?xml version="1.0" encoding="UTF-8"?> <svg xmlns="http://www.w3.org/2000/svg" width="46" height="45" viewBox="0 0 46 45" fill="none"> <path d="M14.7198 2.7002C8.12565 2.7002 2.75977 7.94943 2.75977 14.4002V30.6002C2.75977 37.051 8.12565 42.3002 14.7198 42.3002H31.2798C37.8739 42.3002 43.2398 37.051 43.2398 30.6002V14.4002C43.2398 7.94943 37.8739 2.7002 31.2798 2.7002H14.7198ZM14.7198 4.5002H31.2798C36.8793 4.5002 41.3998 8.92236 41.3998 14.4002V30.6002C41.3998 36.078 36.8793 40.5002 31.2798 40.5002H14.7198C9.1202 40.5002 4.59977 36.078 4.59977 30.6002V14.4002C4.59977 8.92236 9.1202 4.5002 14.7198 4.5002ZM34.0398 9.90019C33.5518 9.90019 33.0838 10.0898 32.7387 10.4274C32.3936 10.765 32.1998 11.2228 32.1998 11.7002C32.1998 12.1776 32.3936 12.6354 32.7387 12.973C33.0838 13.3106 33.5518 13.5002 34.0398 13.5002C34.5278 13.5002 34.9958 13.3106 35.3408 12.973C35.6859 12.6354 35.8798 12.1776 35.8798 11.7002C35.8798 11.2228 35.6859 10.765 35.3408 10.4274C34.9958 10.0898 34.5278 9.90019 34.0398 9.90019ZM22.9998 12.6002C17.4215 12.6002 12.8798 17.0432 12.8798 22.5002C12.8798 27.9572 17.4215 32.4002 22.9998 32.4002C28.578 32.4002 33.1198 27.9572 33.1198 22.5002C33.1198 17.0432 28.578 12.6002 22.9998 12.6002ZM22.9998 14.4002C27.5836 14.4002 31.2798 18.016 31.2798 22.5002C31.2798 26.9844 27.5836 30.6002 22.9998 30.6002C18.4159 30.6002 14.7198 26.9844 14.7198 22.5002C14.7198 18.016 18.4159 14.4002 22.9998 14.4002Z" fill="white"></path> </svg> 