<?xml version="1.0" encoding="UTF-8"?> <svg xmlns="http://www.w3.org/2000/svg" width="192" height="211" viewBox="0 0 192 211" fill="none"> <path d="M116.004 0H75.996C34.0916 0 0 34.086 0 75.9804V112.02C0 143.219 19.172 171.258 48 182.68V206.043C48 207.625 48.9316 209.058 50.3788 209.699C50.8984 209.93 51.4512 210.043 52 210.043C52.9728 210.043 53.9356 209.688 54.6856 209.008L77.8788 188H116.004C157.908 188 192 153.914 192 112.02V75.9804C192 34.086 157.908 0 116.004 0ZM184 112.02C184 149.504 153.498 180 116.004 180H76.336C75.3436 180 74.3868 180.367 73.6504 181.035L56 197.024V179.906C56 178.211 54.9316 176.699 53.332 176.137C26.2188 166.551 8 140.785 8 112.02V75.9804C8 38.496 38.502 8 75.996 8H116.004C153.498 8 184 38.496 184 75.9804V112.02Z" fill="white"></path> <path d="M148.863 121.973L124.277 106.004C121.588 104.258 118.391 103.664 115.256 104.312C112.119 104.973 109.426 106.824 107.676 109.523L106.52 111.301C95.8788 107.785 84.1464 103.293 77.1232 82.9606L80.0312 80.4334H80.0332C85.0236 76.0934 85.5488 68.4998 81.2072 63.4998L61.9748 41.3746C60.5252 39.707 57.998 39.535 56.33 40.9802L44.256 51.4762C33.662 60.6834 38.6132 74.3046 40.2404 78.781C40.3124 78.9802 40.4004 79.1718 40.504 79.359C40.924 80.113 50.9532 98.0078 67.1464 114.504C83.4064 131.066 112.764 146.363 113.664 146.808C117.018 148.984 120.789 150.027 124.52 150.027C131.07 150.027 137.496 146.816 141.326 140.925L150.039 127.508C151.242 125.652 150.715 123.175 148.863 121.973ZM134.617 136.566C131.012 142.117 123.566 143.695 117.684 139.902C117.391 139.75 88.2284 124.562 72.8556 108.902C58.4884 94.2654 48.9492 78.0078 47.6464 75.7382C44.4764 66.8554 45.0372 61.3942 49.502 57.5154L58.5604 49.6442L75.168 68.7498C76.6424 70.445 76.4728 72.9254 74.7832 74.3942L69.8752 78.6598C68.6796 79.699 68.2088 81.3434 68.6756 82.8554C77.0448 110.047 93.3164 115.387 105.197 119.289L106.928 119.859C108.658 120.445 110.557 119.777 111.547 118.246L114.385 113.879C114.971 112.976 115.865 112.363 116.904 112.144C117.947 111.922 119.014 112.129 119.918 112.715L141.15 126.504L134.617 136.566Z" fill="white"></path> <path d="M105.129 64.9882C103 64.3746 100.789 65.613 100.186 67.7418C99.5819 69.867 100.814 72.0778 102.938 72.6834C108.898 74.3786 113.644 79.1366 115.326 85.1014C115.822 86.863 117.428 88.0154 119.174 88.0154C119.533 88.0154 119.898 87.9686 120.262 87.867C122.387 87.2654 123.625 85.0582 123.025 82.9294C120.598 74.3122 113.738 67.4374 105.129 64.9882Z" fill="white"></path> <path d="M135.57 88.8749C135.93 88.8749 136.295 88.8281 136.658 88.7265C138.785 88.1249 140.022 85.9141 139.422 83.7893C134.703 67.0585 121.385 53.7109 104.666 48.9533C102.541 48.3401 100.328 49.5861 99.7248 51.7073C99.1212 53.8321 100.354 56.0429 102.478 56.6485C116.545 60.6485 127.752 71.8829 131.723 85.9609C132.221 87.7229 133.824 88.8749 135.57 88.8749Z" fill="white"></path> <path d="M102.943 30.3279C100.814 29.7147 98.6036 30.9531 98 33.0819C97.3964 35.2071 98.6288 37.4179 100.752 38.0235C124.59 44.8047 143.576 63.8359 150.303 87.6875C150.799 89.4491 152.404 90.6015 154.15 90.6015C154.51 90.6015 154.875 90.5547 155.238 90.4531C157.363 89.8515 158.602 87.6407 158.002 85.5155C150.527 59.0115 129.43 37.8671 102.943 30.3279Z" fill="white"></path> </svg> 