<?xml version="1.0" encoding="UTF-8"?> <svg xmlns="http://www.w3.org/2000/svg" width="46" height="45" viewBox="0 0 46 45" fill="none"> <path d="M40.8269 5.3879C40.3788 5.40713 39.9426 5.52913 39.5493 5.68321C39.16 5.83627 36.9187 6.77211 33.6088 8.15646C30.299 9.5408 25.9965 11.3435 21.7315 13.1311C13.2015 16.7062 4.81931 20.2238 4.81931 20.2238L4.88041 20.201C4.88041 20.201 4.3745 20.3664 3.86158 20.716C3.60512 20.8908 3.32921 21.1165 3.1033 21.4455C2.87739 21.7745 2.71223 22.2408 2.77447 22.734C2.99308 24.4663 4.8283 24.9576 4.8283 24.9576L4.83549 24.9611L13.0256 27.7033C13.2345 28.3848 15.5097 35.8138 16.0103 37.3871C16.2867 38.2569 16.5454 38.7587 16.8153 39.101C16.9503 39.2723 17.0918 39.4048 17.2483 39.5018C17.3105 39.5403 17.3759 39.5692 17.4406 39.5949C17.4419 39.5955 17.4428 39.5943 17.4442 39.5949C17.4521 39.5984 17.4596 39.5987 17.4675 39.602L17.446 39.5967C17.461 39.6026 17.4758 39.6126 17.4909 39.6178C17.5201 39.6278 17.538 39.6274 17.5753 39.6354C18.5133 39.9557 19.2895 39.3611 19.2895 39.3611L19.3219 39.3365L24.3531 34.7715L32.5181 40.9994L32.6206 41.0451C34.0497 41.6659 35.3422 41.3196 36.058 40.7498C36.7738 40.1801 37.0553 39.4455 37.0553 39.4455L37.0858 39.3682L43.0856 8.77696C43.2391 8.09257 43.2609 7.50099 43.1161 6.96642C42.9713 6.43185 42.6195 5.96715 42.1781 5.70958C41.7367 5.45201 41.275 5.36867 40.8269 5.3879ZM40.8754 7.21778C41.0574 7.20954 41.1923 7.22989 41.2348 7.2547C41.2773 7.27951 41.2964 7.27624 41.3372 7.42696C41.378 7.57769 41.4001 7.89515 41.2887 8.392L41.2851 8.40255L35.3195 38.8162C35.3053 38.8468 35.181 39.1282 34.8972 39.3541C34.6077 39.5846 34.2856 39.7645 33.431 39.4139L24.5023 32.6024L24.2507 32.409L24.2453 32.4143L21.5752 30.4543L36.5809 13.1838C36.6962 13.0514 36.7698 12.8892 36.7929 12.7168C36.816 12.5444 36.7875 12.3691 36.7109 12.2122C36.6343 12.0552 36.5128 11.9234 36.3613 11.8325C36.2097 11.7417 36.0344 11.6957 35.8567 11.7002C35.6831 11.7046 35.5143 11.757 35.3698 11.8514L13.6563 26.0123L5.45361 23.2649C5.45361 23.2649 4.63908 22.8214 4.60009 22.5125C4.59793 22.4954 4.58832 22.5109 4.63064 22.4492C4.67297 22.3876 4.77936 22.2835 4.91275 22.1926C5.17953 22.0107 5.48416 21.9008 5.48416 21.9008L5.5147 21.8902L5.54525 21.8779C5.54525 21.8779 13.9279 18.3601 22.4574 14.7852C26.7222 12.9977 31.024 11.1963 34.333 9.81232C37.6411 8.42867 40.0315 7.43274 40.2339 7.35314C40.4643 7.26287 40.6934 7.22603 40.8754 7.21778ZM30.9243 16.9139L19.5447 30.0113L19.5393 30.0166C19.5215 30.0375 19.5048 30.0592 19.489 30.0817C19.4709 30.106 19.4542 30.1312 19.4387 30.1572C19.3748 30.2634 19.3338 30.3813 19.3183 30.5035C19.3183 30.5059 19.3183 30.5082 19.3183 30.5106L17.8359 37.032C17.8112 36.9616 17.794 36.9358 17.7676 36.8527V36.851C17.2968 35.371 15.1501 28.3647 14.8531 27.3957L30.9243 16.9139ZM20.8295 32.1576L22.8743 33.6588L19.8699 36.3834L20.8295 32.1576Z" fill="white"></path> </svg> 