<?xml version="1.0" encoding="UTF-8"?> <svg xmlns="http://www.w3.org/2000/svg" width="321" height="344" viewBox="0 0 321 344" fill="none"> <path d="M219.753 343.976C164.115 343.976 118.975 298.837 118.975 243.198C118.977 187.561 164.116 142.42 219.753 142.42C275.39 142.42 320.531 187.559 320.531 243.198C320.531 298.835 275.04 343.976 219.753 343.976V343.976ZM219.753 155.017C171.113 155.017 131.572 194.559 131.572 243.198C131.572 291.837 171.114 331.379 219.753 331.379C268.392 331.379 307.933 291.837 307.933 243.198C307.933 194.559 268.391 155.017 219.753 155.017V155.017Z" fill="#313131"></path> <path d="M131.222 343.976H6.64918C3.14894 343.976 0 341.176 0 337.327V6.64917C0 3.14894 2.7997 0 6.64918 0H216.253C218.003 0 219.754 0.700534 220.803 1.75012L281.339 60.8878C282.738 62.2864 283.438 63.6875 283.438 65.7866V126.672C283.438 130.172 280.639 133.321 276.789 133.321C273.289 133.321 270.14 130.522 270.14 126.672V68.9359L213.102 13.2987H13.2956V330.679H131.57C135.07 330.679 138.219 333.479 138.219 337.328C138.216 341.175 135.068 343.975 131.219 343.975L131.222 343.976Z" fill="#313131"></path> <path d="M52.1392 113.726H192.109C196.307 113.726 199.807 110.226 199.807 106.028C199.807 101.83 196.307 98.3297 192.109 98.3297H52.1392C47.9409 98.3297 44.4409 101.83 44.4409 106.028C44.79 110.226 47.9387 113.726 52.1392 113.726V113.726Z" fill="#313131"></path> <path d="M52.8389 71.3856H192.808C197.007 71.3856 200.507 67.8854 200.507 63.6873C200.507 59.4892 197.006 55.989 192.808 55.989H52.8389C48.6406 55.989 45.1406 59.4892 45.1406 63.6873C45.4921 67.8881 48.6409 71.3856 52.8389 71.3856V71.3856Z" fill="#313131"></path> <path d="M52.8389 156.767H134.721C138.919 156.767 142.419 153.267 142.419 149.069C142.419 144.871 138.919 141.37 134.721 141.37H52.8389C48.6406 141.37 45.1406 144.871 45.1406 149.069C45.4921 153.269 48.6409 156.767 52.8389 156.767Z" fill="#313131"></path> <path d="M103.928 201.557H52.4891C48.2908 201.557 44.7908 198.057 44.7908 193.859C44.7908 189.661 48.291 186.161 52.4891 186.161H103.579C107.778 186.161 111.277 189.661 111.277 193.859C111.277 198.06 107.777 201.557 103.928 201.557Z" fill="#313131"></path> <path d="M277.49 206.106C277.49 200.158 275.039 194.209 270.841 190.008C266.643 185.81 260.694 183.359 254.743 183.359C248.795 183.359 242.846 185.81 238.645 190.008L177.06 251.245C176.71 251.594 176.359 252.295 176.01 252.644C176.01 252.644 175.661 252.993 175.661 253.344L165.163 288.686C164.462 290.436 165.163 292.535 166.561 293.934C167.611 294.983 169.012 295.332 170.41 295.332C170.76 295.332 171.46 295.332 171.809 294.983L207.151 284.485L207.851 284.136C208.552 283.787 208.901 283.435 209.25 283.086L270.836 221.85C275.039 218.003 277.489 212.054 277.489 206.106L277.49 206.106ZM263.143 197.009C267.341 201.207 268.041 207.856 264.541 212.755L247.394 195.608C252.296 192.459 258.944 192.808 263.143 197.009L263.143 197.009ZM240.047 202.606L257.543 220.102L205.755 272.59L188.259 255.094L240.047 202.606ZM183.009 264.543L195.606 277.14L177.761 282.739L183.009 264.543Z" fill="#313131"></path> </svg> 