<?xml version="1.0" encoding="UTF-8"?> <svg xmlns="http://www.w3.org/2000/svg" width="357" height="332" viewBox="0 0 357 332" fill="none"> <path d="M254.985 0.0031881C221.944 0.00608271 190.967 16.0777 171.941 43.0896C152.91 70.1008 148.207 104.679 159.328 135.79L1.99954 292.992C0.63901 294.347 -0.0847169 296.217 0.00791653 298.136L1.46108 325.568C1.65792 329.166 4.62506 331.986 8.2262 332H8.59964L65.3721 330.092H65.3692C68.345 329.988 70.9098 327.976 71.7203 325.113L78.2771 301.292L103.965 296.313V296.31C106.721 295.774 108.863 293.597 109.361 290.833L113.512 268.256L137.085 262.571H137.082C139.98 261.867 142.082 259.363 142.27 256.387L143.804 232.233L163.184 229.993V229.995C166.07 229.654 168.418 227.52 169.038 224.683L174.35 200.405H177.38H177.377C188.001 200.072 198.321 196.78 207.176 190.901C234.749 205.795 267.654 207.124 296.342 194.499C325.026 181.875 346.277 156.717 353.922 126.321C361.564 95.9285 354.75 63.7099 335.45 39.016C316.15 14.3236 286.531 -0.0752928 255.192 0.00029613L254.985 0.0031881ZM254.985 189.494V189.497C239.212 189.442 223.742 185.143 210.205 177.046C207.93 175.703 205.082 175.802 202.902 177.295C195.476 182.975 186.509 186.275 177.173 186.756C175.279 186.808 173.389 186.57 171.568 186.052C169.669 185.219 167.492 185.3 165.657 186.269C163.822 187.239 162.531 188.991 162.149 191.031L156.463 217.053L136.295 219.377C133.021 219.768 130.494 222.437 130.277 225.725L128.699 250.627L105.749 256.144C103.132 256.775 101.129 258.888 100.646 261.54L96.4944 283.908L71.2632 288.806C68.8345 289.319 66.8776 291.116 66.1597 293.496L59.768 316.571L14.6993 318.105L13.744 300.386L172.066 142.146C174.008 140.209 174.596 137.297 173.559 134.758C164.009 111.337 165.011 84.9332 176.304 62.2988C187.596 39.6644 208.092 22.9904 232.549 16.5349C257.007 10.0767 283.06 14.468 304.053 28.5802C325.046 42.6924 338.944 65.1615 342.198 90.2482C345.452 115.335 337.746 140.606 321.049 159.608C304.349 178.609 280.278 189.499 254.984 189.499L254.985 189.494Z" fill="#313131"></path> <path d="M246.855 45.278C238.689 45.278 230.856 48.523 225.081 54.2982C219.305 60.0705 216.06 67.9035 216.06 76.07C216.06 84.2366 219.305 92.0697 225.081 97.8448C230.856 103.62 238.689 106.865 246.855 106.865C255.022 106.865 262.855 103.62 268.627 97.8448C274.402 92.0697 277.647 84.2366 277.647 76.07C277.647 67.9035 274.402 60.0704 268.627 54.2982C262.855 48.5231 255.022 45.278 246.855 45.278ZM246.855 95.0769C241.847 95.0451 237.059 93.0274 233.533 89.4726C230.01 85.9149 228.042 81.1067 228.056 76.0986C228.071 71.0906 230.068 66.2943 233.611 62.7594C237.158 59.2219 241.957 57.2332 246.965 57.2303C251.973 57.2274 256.776 59.2075 260.325 62.7391C263.877 66.2708 265.88 71.0643 265.903 76.0695C265.914 81.1151 263.905 85.9523 260.328 89.5072C256.75 93.0621 251.898 95.0392 246.855 94.9957L246.855 95.0769Z" fill="#313131"></path> </svg> 