<?xml version="1.0" encoding="UTF-8"?> <svg xmlns="http://www.w3.org/2000/svg" width="359" height="359" viewBox="0 0 359 359" fill="none"> <path d="M194.803 20.856L204.446 28.0908C212.795 34.3539 223.239 37.1523 233.6 35.9026L245.569 34.459C256.824 33.1016 267.623 39.3365 272.074 49.7616L276.809 60.849C280.907 70.4472 288.553 78.0927 298.151 82.1912L309.238 86.9255C319.664 91.3771 325.898 102.176 324.541 113.43L323.097 125.4C321.848 135.761 324.646 146.205 330.909 154.554L338.144 164.197C344.947 173.265 344.947 185.735 338.144 194.803L330.909 204.446C324.646 212.795 321.848 223.239 323.097 233.6L324.541 245.569C325.898 256.824 319.664 267.623 309.238 272.074L298.151 276.809C288.553 280.907 280.907 288.553 276.809 298.151L272.074 309.238C267.623 319.664 256.824 325.898 245.57 324.541L233.6 323.097C223.239 321.848 212.795 324.646 204.446 330.909L194.803 338.144C185.735 344.947 173.265 344.947 164.197 338.144L154.554 330.909C146.205 324.646 135.761 321.848 125.4 323.097L113.431 324.541C102.176 325.898 91.3771 319.664 86.9255 309.238L82.1912 298.151C78.0927 288.553 70.4472 280.907 60.849 276.809L49.7616 272.074C39.3365 267.623 33.1016 256.824 34.459 245.57L35.9026 233.6C37.1523 223.239 34.3539 212.795 28.0908 204.446L20.856 194.803C14.0534 185.735 14.0534 173.265 20.856 164.197L28.0908 154.554C34.3539 146.205 37.1523 135.761 35.9026 125.4L34.459 113.431C33.1016 102.176 39.3365 91.3771 49.7616 86.9255L60.849 82.1912C70.4472 78.0927 78.0927 70.4472 82.1912 60.849L86.9255 49.7616C91.3771 39.3365 102.176 33.1016 113.43 34.459L125.4 35.9026C135.761 37.1523 146.205 34.3539 154.554 28.0908L164.197 20.856C173.265 14.0534 185.735 14.0534 194.803 20.856Z" stroke="#313131" stroke-width="15"></path> <circle cx="129.5" cy="129.5" r="23" stroke="#313131" stroke-width="15"></circle> <circle cx="228.5" cy="228.5" r="23" stroke="#313131" stroke-width="15"></circle> <rect x="237.008" y="112.509" width="12" height="176.245" rx="6" transform="rotate(45 237.008 112.509)" fill="#313131"></rect> </svg> 