<?xml version="1.0" encoding="UTF-8"?> <svg xmlns="http://www.w3.org/2000/svg" width="398" height="344" viewBox="0 0 398 344" fill="none"> <path d="M344.933 105.846C342.715 105.861 340.499 106.014 338.299 106.307V59.5385C338.281 43.753 331.986 28.62 320.795 17.4571C309.601 6.29633 294.428 0.0181451 278.6 0H119.4C103.572 0.0177202 88.3983 6.29641 77.2051 17.4571C66.0142 28.6208 59.719 43.753 59.7008 59.5385V106.307C41.6961 104.024 23.771 111.088 12.1927 125.025C0.611367 138.965 -3.01382 157.845 2.5862 175.063C8.18303 192.28 22.2223 205.449 39.8009 209.962V271.231C39.8127 278.853 42.4572 286.237 47.29 292.14C52.1228 298.043 58.8478 302.105 66.334 303.64V337.385C66.334 339.139 67.0329 340.822 68.2766 342.063C69.5203 343.303 71.2083 344 72.9673 344H99.5005C102.012 344 104.31 342.585 105.435 340.344L123.502 304.308H274.498L292.565 340.344C293.69 342.585 295.988 344 298.5 344H325.033C326.792 344 328.48 343.303 329.723 342.063C330.967 340.822 331.666 339.139 331.666 337.385V303.64C339.152 302.104 345.877 298.044 350.71 292.14C355.543 286.236 358.187 278.853 358.199 271.231V209.962C375.017 205.638 388.647 193.376 394.688 177.139C400.729 160.899 398.414 142.739 388.493 128.524C378.573 114.307 362.3 105.837 344.933 105.846ZM72.9674 59.5382C72.9822 47.2615 77.8772 35.4892 86.5834 26.8098C95.2863 18.1274 107.091 13.2456 119.4 13.2305H278.6C290.909 13.2452 302.714 18.1271 311.417 26.8098C320.122 35.4892 325.017 47.2615 325.033 59.5382V109.741C315.243 113.698 306.859 120.479 300.951 129.212C295.043 137.942 291.881 148.234 291.866 158.769V185.963C283.154 177.035 271.191 171.997 258.7 172H139.3C126.809 171.997 114.846 177.035 106.134 185.963V158.769C106.119 148.234 102.956 137.942 97.0489 129.212C91.1411 120.479 82.7574 113.698 72.9674 109.741V59.5382ZM106.134 218.307C106.143 209.539 109.643 201.131 115.859 194.929C122.077 188.73 130.508 185.24 139.3 185.23H258.7C267.492 185.239 275.923 188.73 282.141 194.929C288.357 201.131 291.857 209.539 291.866 218.307V224.923H106.134V218.307ZM95.3993 330.769H79.6007V304.307H108.666L95.3993 330.769ZM302.601 330.769L289.334 304.307H318.402V330.769H302.601ZM350.63 198C347.36 198.464 344.932 201.255 344.935 204.548V271.227C344.929 276.49 342.83 281.534 339.101 285.255C335.37 288.973 330.312 291.067 325.035 291.073H72.9696C67.6926 291.067 62.6346 288.973 58.9033 285.255C55.175 281.534 53.0754 276.49 53.0695 271.227V204.548C53.0725 201.255 50.6442 198.464 47.375 198C37.262 196.535 28.1028 191.243 21.7955 183.225C15.4879 175.204 12.5179 165.071 13.5012 154.926C14.4844 144.781 19.3467 135.402 27.0756 128.736C34.8073 122.07 44.8134 118.627 55.0211 119.12C65.2288 119.613 74.8527 124.007 81.9007 131.388C88.9486 138.768 92.8756 148.573 92.8695 158.765V231.534C92.8695 233.289 93.5684 234.972 94.8121 236.212C96.0559 237.453 97.7438 238.15 99.5028 238.15H298.502C300.261 238.15 301.949 237.453 303.192 236.212C304.436 234.972 305.135 233.289 305.135 231.534V158.765C305.123 148.565 309.047 138.75 316.098 131.359C323.149 123.966 332.782 119.566 342.998 119.07C353.215 118.574 363.23 122.017 370.968 128.692C378.705 135.363 383.568 144.752 384.551 154.906C385.531 165.059 382.558 175.201 376.242 183.225C369.925 191.249 360.751 196.538 350.63 198Z" fill="#313131"></path> </svg> 