<?xml version="1.0" encoding="UTF-8"?> <svg xmlns="http://www.w3.org/2000/svg" width="338" height="345" viewBox="0 0 338 345" fill="none"> <path d="M59.4731 344.47C62.2368 344.47 65.0247 343.594 67.3829 341.795L111.855 307.734C115.157 308.215 94.4295 308.126 97.8423 308.126L220.767 308.267C223.512 308.267 226.348 308.267 229.258 307.961C231.432 307.731 237.611 302.247 239.172 300.69L329.11 210.751C334.589 205.273 337.518 197.669 337.149 189.883C336.781 182.117 333.142 174.821 327.152 169.867C316.298 160.883 299.616 162.028 289.176 172.476L249.049 212.603C245.285 210.389 241.047 209.188 236.731 209.188H236.712C235.906 209.153 216.961 208.439 212.37 208.398C209.184 208.425 205.907 208.49 202.57 208.558C185.994 208.891 168.863 209.229 153.433 205.208C149.899 204.28 146.505 203.296 143.204 202.336C126.617 197.517 110.946 192.966 90.8759 199.905C73.3312 205.93 56.6574 217.641 38.4184 236.757L4.23808 267.765C-0.948473 272.443 -1.4406 280.553 3.12666 285.832L49.6431 339.985C52.1931 342.941 55.8194 344.474 59.4725 344.471L59.4731 344.47ZM12.1585 276.512L46.5147 245.346C46.6201 245.249 46.7229 245.149 46.8203 245.049C63.762 227.266 78.9806 216.466 94.7268 211.063C111.26 205.352 123.907 209.016 139.913 213.667C143.312 214.657 146.806 215.668 150.454 216.625C167.474 221.057 186.246 220.684 202.811 220.36C206.102 220.295 209.331 220.227 212.479 220.206C215.859 220.162 229.504 220.703 236.467 220.993C239.991 220.993 243.314 222.377 245.829 224.892C248.343 227.404 249.728 230.73 249.728 234.253C249.728 241.587 243.776 247.555 236.467 247.555H148.917C145.737 247.555 141.883 251.138 142.348 254.6C142.973 259.243 149.517 259.689 153.138 259.364H236.472C250.296 259.364 261.54 248.101 261.54 234.259C261.54 229.413 260.147 224.781 257.578 220.787L297.532 180.833C303.711 174.648 313.421 173.832 319.636 178.972C323.116 181.852 325.152 185.928 325.366 190.443C325.58 194.913 323.9 199.275 320.769 202.406L230.83 292.345C228.113 295.062 220.836 296.466 220.774 296.466H218.949C218.949 296.466 108.159 295.706 106.768 296.777L60.2244 332.423C59.716 332.809 58.9994 332.747 58.6046 332.282L12.0715 278.113C11.6578 277.634 11.6903 276.936 12.1635 276.509L12.1585 276.512Z" fill="#313131"></path> <path d="M211.078 58.6076C190.167 58.6076 173.153 75.622 173.153 96.5331C173.153 117.444 190.167 134.459 211.078 134.459C231.989 134.459 249.004 117.444 249.004 96.5331C249.004 75.622 231.995 58.6076 211.078 58.6076ZM211.078 122.242C196.879 122.242 185.367 110.733 185.367 96.5303C185.367 82.3307 196.876 70.8191 211.078 70.8191C225.278 70.8191 236.789 82.3279 236.789 96.5303C236.789 110.733 225.281 122.242 211.078 122.242Z" fill="#313131"></path> <path d="M297.265 52.758L292.078 43.7725C288.171 37.0067 280.891 32.8043 273.074 32.8043C269.236 32.8043 265.448 33.8211 262.119 35.7437L258.88 37.6123C252.641 32.5501 245.686 28.5291 238.198 25.668V21.9336C238.198 9.83772 228.361 0 216.265 0H205.886C193.791 0 183.953 9.83772 183.953 21.9336V25.668C176.451 28.5371 169.488 32.5608 163.245 37.6365L160.035 35.7436C156.706 33.8209 152.918 32.8042 149.08 32.8042C141.26 32.8042 133.981 37.0064 130.073 43.7751L124.886 52.7606C118.84 63.2366 122.439 76.6762 132.915 82.7224L136.114 84.5666C135.473 88.5201 135.152 92.5435 135.152 96.5296C135.152 100.515 135.473 104.539 136.114 108.493L132.915 110.337C122.445 116.383 118.843 129.825 124.886 140.296L130.073 149.281C133.98 156.047 141.26 160.249 149.078 160.249C152.915 160.249 156.704 159.233 160.032 157.31L163.272 155.442C169.51 160.504 176.465 164.519 183.953 167.386V171.12C183.953 183.216 193.791 193.054 205.886 193.054H216.265C228.361 193.054 238.198 183.216 238.198 171.12V167.386C245.7 164.517 252.663 160.493 258.907 155.417L262.116 157.31C265.445 159.233 269.239 160.25 273.071 160.25C280.886 160.25 288.17 156.047 292.078 149.279L297.265 140.293C303.311 129.817 299.712 116.378 289.236 110.334L286.037 108.49C286.678 104.536 287 100.513 287 96.5269C287 92.5409 286.678 88.5175 286.037 84.564L289.236 82.7197C299.712 76.6733 303.314 63.2312 297.265 52.758V52.758ZM283.133 72.1413L279.745 74.0991C275.48 76.5599 273.13 81.3706 273.936 86.2296C274.493 89.5827 274.788 93.0224 274.788 96.5353C274.788 100.048 274.493 103.485 273.936 106.841C273.13 111.698 275.48 116.508 279.745 118.971L283.133 120.929C287.781 123.612 289.374 129.555 286.692 134.204L281.505 143.19C279.707 146.307 276.437 148.052 273.076 148.052C271.429 148.052 269.758 147.632 268.228 146.748L264.801 144.771C262.941 143.698 260.87 143.162 258.812 143.162C256.167 143.162 253.544 144.047 251.402 145.799C246.094 150.147 240.075 153.649 233.539 156.11C228.952 157.838 225.983 162.289 225.983 167.189V171.135C225.983 176.5 221.635 180.853 216.265 180.853H205.886C200.521 180.853 196.168 176.505 196.168 171.135V167.178C196.168 162.278 193.199 157.825 188.612 156.099C182.076 153.639 176.057 150.137 170.749 145.788C168.61 144.036 165.984 143.152 163.339 143.152C161.281 143.152 159.21 143.687 157.35 144.761L153.924 146.737C152.393 147.622 150.722 148.041 149.075 148.041C145.719 148.041 142.45 146.297 140.652 143.179L135.465 134.193C132.783 129.545 134.375 123.601 139.024 120.918L142.412 118.961C146.676 116.5 149.026 111.689 148.22 106.83C147.663 103.477 147.369 100.037 147.369 96.5245C147.369 93.0118 147.663 89.5749 148.22 86.2188C149.026 81.3622 146.676 76.5514 142.412 74.0883L139.024 72.1305C134.375 69.448 132.783 63.5043 135.465 58.8557L140.652 49.8702C142.45 46.7523 145.719 45.0082 149.081 45.0082C150.727 45.0082 152.399 45.4273 153.929 46.3115L157.355 48.2883C159.216 49.3619 161.287 49.8972 163.345 49.8972C165.989 49.8972 168.618 49.013 170.754 47.2607C176.062 42.9152 182.082 39.4105 188.618 36.9495C193.204 35.2215 196.173 30.7705 196.173 25.8705V21.9252C196.173 16.5602 200.521 12.2066 205.892 12.2066H216.27C221.635 12.2066 225.989 16.5548 225.989 21.9252V25.8705C225.989 30.7704 228.958 35.2244 233.544 36.9495C240.08 39.4103 246.1 42.9121 251.408 47.2607C253.547 49.013 256.173 49.8972 258.817 49.8972C260.875 49.8972 262.946 49.3618 264.807 48.2883L268.233 46.3115C269.764 45.4273 271.435 45.0082 273.082 45.0082C276.437 45.0082 279.707 46.7523 281.505 49.8702L286.692 58.8557C289.369 63.515 287.779 69.4584 283.133 72.1409V72.1413Z" fill="#313131"></path> </svg> 