<?xml version="1.0" encoding="UTF-8"?> <svg xmlns="http://www.w3.org/2000/svg" width="2355" height="343" viewBox="0 0 2355 343" fill="none"> <path d="M0.981969 275V30.5738H57.5492V228.908H180.111V275H0.981969ZM252.883 275L173.968 87.141H230.186L295.832 248.811H267.898L335.988 87.141H388.365L309.101 275H252.883ZM417.576 275V87.141H472.048V275H417.576ZM444.812 60.9524C434.802 60.9524 426.655 58.0426 420.369 52.2229C414.084 46.4033 410.941 39.1869 410.941 30.5738C410.941 21.9606 414.084 14.7442 420.369 8.92458C426.655 3.1049 434.802 0.195061 444.812 0.195061C454.822 0.195061 462.969 2.98851 469.255 8.57541C475.54 13.9295 478.682 20.9131 478.682 29.5262C478.682 38.6049 475.54 46.1705 469.255 52.2229C463.202 58.0426 455.055 60.9524 444.812 60.9524ZM580.567 275L501.652 87.141H557.87L623.516 248.811H595.582L663.672 87.141H716.049L636.785 275H580.567ZM941.919 277.793C921.667 277.793 903.626 273.72 887.796 265.572C871.967 257.192 859.513 245.669 850.434 231.003C841.588 216.338 837.165 199.693 837.165 181.07C837.165 162.215 841.588 145.57 850.434 131.138C859.513 116.472 871.967 105.066 887.796 96.918C903.626 88.5377 921.667 84.3475 941.919 84.3475C961.706 84.3475 978.932 88.5377 993.598 96.918C1008.26 105.066 1019.09 116.821 1026.07 132.185L983.821 154.882C978.932 146.036 972.764 139.518 965.314 135.328C958.098 131.138 950.183 129.043 941.57 129.043C932.259 129.043 923.878 131.138 916.429 135.328C908.98 139.518 903.044 145.454 898.621 153.136C894.431 160.818 892.336 170.13 892.336 181.07C892.336 192.011 894.431 201.323 898.621 209.005C903.044 216.687 908.98 222.623 916.429 226.813C923.878 231.003 932.259 233.098 941.57 233.098C950.183 233.098 958.098 231.12 965.314 227.162C972.764 222.972 978.932 216.338 983.821 207.259L1026.07 230.305C1019.09 245.436 1008.26 257.192 993.598 265.572C978.932 273.72 961.706 277.793 941.919 277.793ZM1151.42 277.793C1131.4 277.793 1113.59 273.603 1098 265.223C1082.63 256.843 1070.41 245.436 1061.33 231.003C1052.49 216.338 1048.06 199.693 1048.06 181.07C1048.06 162.215 1052.49 145.57 1061.33 131.138C1070.41 116.472 1082.63 105.066 1098 96.918C1113.59 88.5377 1131.4 84.3475 1151.42 84.3475C1171.21 84.3475 1188.9 88.5377 1204.5 96.918C1220.09 105.066 1232.32 116.356 1241.16 130.789C1250.01 145.221 1254.43 161.982 1254.43 181.07C1254.43 199.693 1250.01 216.338 1241.16 231.003C1232.32 245.436 1220.09 256.843 1204.5 265.223C1188.9 273.603 1171.21 277.793 1151.42 277.793ZM1151.42 233.098C1160.5 233.098 1168.65 231.003 1175.86 226.813C1183.08 222.623 1188.78 216.687 1192.97 209.005C1197.16 201.09 1199.26 191.779 1199.26 181.07C1199.26 170.13 1197.16 160.818 1192.97 153.136C1188.78 145.454 1183.08 139.518 1175.86 135.328C1168.65 131.138 1160.5 129.043 1151.42 129.043C1142.34 129.043 1134.2 131.138 1126.98 135.328C1119.76 139.518 1113.94 145.454 1109.52 153.136C1105.33 160.818 1103.24 170.13 1103.24 181.07C1103.24 191.779 1105.33 201.09 1109.52 209.005C1113.94 216.687 1119.76 222.623 1126.98 226.813C1134.2 231.003 1142.34 233.098 1151.42 233.098ZM1412.01 84.3475C1426.9 84.3475 1440.17 87.3738 1451.81 93.4262C1463.68 99.2459 1473 108.325 1479.75 120.662C1486.5 132.767 1489.87 148.364 1489.87 167.452V275H1435.4V175.833C1435.4 160.702 1432.03 149.528 1425.27 142.311C1418.76 135.095 1409.45 131.487 1397.34 131.487C1388.73 131.487 1380.93 133.349 1373.95 137.074C1367.19 140.566 1361.84 146.036 1357.88 153.485C1354.16 160.934 1352.3 170.479 1352.3 182.118V275H1297.82V87.141H1349.85V139.169L1340.07 123.456C1346.83 110.885 1356.49 101.225 1369.06 94.4738C1381.63 87.7229 1395.94 84.3475 1412.01 84.3475ZM1638.38 277.793C1618.13 277.793 1600.09 273.72 1584.26 265.572C1568.43 257.192 1555.98 245.669 1546.9 231.003C1538.05 216.338 1533.63 199.693 1533.63 181.07C1533.63 162.215 1538.05 145.57 1546.9 131.138C1555.98 116.472 1568.43 105.066 1584.26 96.918C1600.09 88.5377 1618.13 84.3475 1638.38 84.3475C1658.17 84.3475 1675.4 88.5377 1690.06 96.918C1704.73 105.066 1715.55 116.821 1722.54 132.185L1680.29 154.882C1675.4 146.036 1669.23 139.518 1661.78 135.328C1654.56 131.138 1646.65 129.043 1638.03 129.043C1628.72 129.043 1620.34 131.138 1612.89 135.328C1605.44 139.518 1599.51 145.454 1595.09 153.136C1590.9 160.818 1588.8 170.13 1588.8 181.07C1588.8 192.011 1590.9 201.323 1595.09 209.005C1599.51 216.687 1605.44 222.623 1612.89 226.813C1620.34 231.003 1628.72 233.098 1638.03 233.098C1646.65 233.098 1654.56 231.12 1661.78 227.162C1669.23 222.972 1675.4 216.338 1680.29 207.259L1722.54 230.305C1715.55 245.436 1704.73 257.192 1690.06 265.572C1675.4 273.72 1658.17 277.793 1638.38 277.793ZM1851.73 277.793C1830.31 277.793 1811.46 273.603 1795.16 265.223C1779.1 256.843 1766.64 245.436 1757.8 231.003C1748.95 216.338 1744.53 199.693 1744.53 181.07C1744.53 162.215 1748.84 145.57 1757.45 131.138C1766.29 116.472 1778.28 105.066 1793.41 96.918C1808.55 88.5377 1825.66 84.3475 1844.74 84.3475C1863.13 84.3475 1879.66 88.3049 1894.33 96.2197C1909.23 103.902 1920.98 115.075 1929.59 129.741C1938.21 144.174 1942.51 161.516 1942.51 181.769C1942.51 183.864 1942.4 186.308 1942.17 189.102C1941.93 191.662 1941.7 194.107 1941.47 196.434H1788.88V164.659H1912.83L1891.88 174.087C1891.88 164.31 1889.9 155.813 1885.95 148.597C1881.99 141.38 1876.52 135.793 1869.54 131.836C1862.55 127.646 1854.4 125.551 1845.09 125.551C1835.78 125.551 1827.52 127.646 1820.3 131.836C1813.32 135.793 1807.85 141.497 1803.89 148.946C1799.93 156.162 1797.95 164.775 1797.95 174.785V183.166C1797.95 193.408 1800.17 202.487 1804.59 210.402C1809.24 218.084 1815.65 224.02 1823.79 228.21C1832.17 232.167 1841.95 234.146 1853.12 234.146C1863.13 234.146 1871.86 232.633 1879.31 229.607C1886.99 226.58 1893.98 222.041 1900.26 215.989L1929.25 247.415C1920.63 257.192 1909.81 264.757 1896.77 270.111C1883.74 275.233 1868.72 277.793 1851.73 277.793ZM2096.8 277.793C2080.97 277.793 2067.12 274.302 2055.25 267.318C2043.38 260.334 2034.07 249.743 2027.32 235.543C2020.8 221.11 2017.54 202.952 2017.54 181.07C2017.54 158.956 2020.68 140.798 2026.97 126.598C2033.25 112.398 2042.33 101.807 2054.2 94.8229C2066.08 87.8393 2080.28 84.3475 2096.8 84.3475C2114.5 84.3475 2130.32 88.4213 2144.29 96.5688C2158.49 104.484 2169.67 115.657 2177.81 130.09C2186.19 144.523 2190.38 161.516 2190.38 181.07C2190.38 200.857 2186.19 217.967 2177.81 232.4C2169.67 246.833 2158.49 258.007 2144.29 265.921C2130.32 273.836 2114.5 277.793 2096.8 277.793ZM1985.76 342.741V87.141H2037.79V125.551L2036.74 181.42L2040.24 236.939V342.741H1985.76ZM2087.38 233.098C2096.45 233.098 2104.49 231.003 2111.47 226.813C2118.69 222.623 2124.39 216.687 2128.58 209.005C2133 201.09 2135.21 191.779 2135.21 181.07C2135.21 170.13 2133 160.818 2128.58 153.136C2124.39 145.454 2118.69 139.518 2111.47 135.328C2104.49 131.138 2096.45 129.043 2087.38 129.043C2078.3 129.043 2070.15 131.138 2062.93 135.328C2055.72 139.518 2050.01 145.454 2045.82 153.136C2041.63 160.818 2039.54 170.13 2039.54 181.07C2039.54 191.779 2041.63 201.09 2045.82 209.005C2050.01 216.687 2055.72 222.623 2062.93 226.813C2070.15 231.003 2078.3 233.098 2087.38 233.098ZM2310.65 277.793C2288.54 277.793 2271.31 272.207 2258.97 261.033C2246.64 249.626 2240.47 232.749 2240.47 210.402V45.5885H2294.94V209.703C2294.94 217.618 2297.03 223.787 2301.22 228.21C2305.41 232.4 2311.12 234.495 2318.33 234.495C2326.95 234.495 2334.28 232.167 2340.33 227.511L2355 265.921C2349.41 269.879 2342.66 272.905 2334.75 275C2327.06 276.862 2319.03 277.793 2310.65 277.793ZM2211.48 133.233V91.3311H2341.73V133.233H2211.48Z" fill="#ffffff"></path> </svg> 